<svg width="202" height="34" viewBox="0 0 202 34" fill="none" xmlns="http://www.w3.org/2000/svg">
<path d="M62.137 27.3092C59.8187 27.3092 57.8283 26.9111 56.1656 26.1149C54.503 25.2953 53.1448 24.2298 52.0911 22.9184C51.0373 21.5837 50.2528 20.1552 49.7376 18.6331C49.2459 17.0876 49 15.5889 49 14.137V13.3642C49 11.7719 49.2576 10.2029 49.7728 8.6574C50.2879 7.08846 51.0724 5.67172 52.1262 4.40719C53.2034 3.14267 54.5499 2.13573 56.1656 1.38638C57.8048 0.613617 59.7368 0.227234 61.9614 0.227234C64.2797 0.227234 66.3287 0.660451 68.1084 1.52689C69.8881 2.39332 71.3048 3.5993 72.3586 5.14483C73.4358 6.66695 74.068 8.45836 74.2554 10.5191H68.4596C68.2957 9.48871 67.921 8.61057 67.3356 7.88464C66.7502 7.15871 65.9891 6.5967 65.0524 6.1986C64.1392 5.80051 63.1088 5.60147 61.9614 5.60147C60.8139 5.60147 59.7953 5.80051 58.9054 6.1986C58.0156 6.5967 57.2663 7.15871 56.6574 7.88464C56.072 8.61057 55.6153 9.477 55.2875 10.4839C54.9831 11.4675 54.8309 12.5681 54.8309 13.7858C54.8309 14.98 54.9831 16.0806 55.2875 17.0876C55.6153 18.0711 56.0837 18.9375 56.6925 19.6869C57.3248 20.4128 58.0976 20.9748 59.0108 21.3729C59.9241 21.7476 60.9662 21.9349 62.137 21.9349C63.9167 21.9349 65.4154 21.5017 66.6331 20.6353C67.8742 19.7688 68.6236 18.5746 68.8811 17.0525H74.6418C74.431 18.9258 73.7988 20.647 72.745 22.2159C71.7146 23.7615 70.2979 25.0026 68.4948 25.9393C66.7151 26.8525 64.5958 27.3092 62.137 27.3092Z" fill="#5061FC"/>
<path d="M85.7698 27.3092C84.0837 27.3092 82.585 27.0516 81.2737 26.5364C79.9623 25.9978 78.85 25.2719 77.9367 24.3586C77.0469 23.4453 76.3678 22.4033 75.8994 21.2324C75.4311 20.0381 75.1969 18.7853 75.1969 17.474V16.6661C75.1969 15.3313 75.4311 14.0668 75.8994 12.8725C76.3912 11.6548 77.0937 10.5893 78.007 9.67605C78.9437 8.76278 80.0677 8.04856 81.379 7.53338C82.6904 6.99479 84.154 6.72549 85.7698 6.72549C87.4324 6.72549 88.9077 6.99479 90.1956 7.53338C91.507 8.04856 92.6193 8.76278 93.5325 9.67605C94.4458 10.5893 95.1483 11.6548 95.6401 12.8725C96.1318 14.0668 96.3777 15.3313 96.3777 16.6661V17.474C96.3777 18.7853 96.1436 20.0381 95.6752 21.2324C95.2069 22.4033 94.5161 23.4453 93.6028 24.3586C92.7129 25.2719 91.6123 25.9978 90.301 26.5364C88.9896 27.0516 87.4792 27.3092 85.7698 27.3092ZM85.7698 22.5672C86.8704 22.5672 87.7836 22.333 88.5096 21.8647C89.2355 21.3963 89.7858 20.7406 90.1605 19.8976C90.5586 19.0546 90.7576 18.1179 90.7576 17.0876C90.7576 15.987 90.5586 15.0269 90.1605 14.2073C89.7624 13.3643 89.1887 12.6969 88.4393 12.2051C87.7134 11.7133 86.8235 11.4675 85.7698 11.4675C84.7394 11.4675 83.8496 11.7133 83.1002 12.2051C82.3509 12.6969 81.7771 13.3643 81.379 14.2073C81.0044 15.0269 80.817 15.987 80.817 17.0876C80.817 18.1179 81.0044 19.0546 81.379 19.8976C81.7537 20.7406 82.3157 21.3963 83.0651 21.8647C83.8144 22.333 84.716 22.5672 85.7698 22.5672Z" fill="#5061FC"/>
<path d="M98.5437 26.6418V7.39288H103.005V15.6474H102.689C102.689 13.6804 102.934 12.0412 103.426 10.7298C103.941 9.41846 104.714 8.43494 105.744 7.77926C106.775 7.12358 108.028 6.79574 109.503 6.79574H109.749C111.997 6.79574 113.706 7.53338 114.877 9.00866C116.071 10.4605 116.669 12.6734 116.669 15.6474V26.6418H111.048V15.3313C111.048 14.3009 110.744 13.4579 110.135 12.8022C109.526 12.1466 108.707 11.8187 107.676 11.8187C106.623 11.8187 105.768 12.1583 105.112 12.8374C104.48 13.493 104.164 14.3595 104.164 15.4367V26.6418H98.5437Z" fill="#5061FC"/>
<path d="M128.448 26.8876C126.504 26.8876 124.935 26.6535 123.741 26.1851C122.547 25.6934 121.668 24.8855 121.106 23.7615C120.568 22.614 120.299 21.0685 120.299 19.1249V2.19427H125.532V19.3356C125.532 20.2489 125.766 20.9514 126.235 21.4432C126.727 21.9115 127.417 22.1457 128.307 22.1457H131.152V26.8876H128.448ZM117.383 11.5026V7.39288H131.152V11.5026H117.383Z" fill="#5061FC"/>
<path d="M144.733 26.6418V20.9514H143.785V14.7693C143.785 13.7858 143.551 13.0481 143.083 12.5564C142.614 12.0646 141.865 11.8187 140.835 11.8187C140.319 11.8187 139.64 11.8304 138.797 11.8538C137.954 11.8773 137.088 11.9124 136.198 11.9592C135.308 12.0061 134.5 12.0529 133.774 12.0997V7.35775C134.313 7.31092 134.945 7.26409 135.671 7.21725C136.397 7.17042 137.146 7.13529 137.919 7.11187C138.692 7.08845 139.418 7.07675 140.097 7.07675C142.064 7.07675 143.715 7.35775 145.05 7.91976C146.408 8.48178 147.438 9.3365 148.141 10.4839C148.843 11.608 149.194 13.0598 149.194 14.8395V26.6418H144.733ZM138.586 27.1335C137.205 27.1335 135.987 26.8876 134.933 26.3959C133.903 25.9041 133.095 25.2016 132.51 24.2883C131.924 23.3517 131.632 22.2393 131.632 20.9514C131.632 19.5464 131.995 18.3989 132.72 17.5091C133.446 16.5958 134.465 15.9284 135.776 15.5069C137.088 15.062 138.598 14.8395 140.308 14.8395H144.417V17.9657H140.273C139.289 17.9657 138.528 18.2116 137.989 18.7034C137.474 19.1717 137.217 19.8157 137.217 20.6353C137.217 21.408 137.474 22.0403 137.989 22.5321C138.528 23.0004 139.289 23.2346 140.273 23.2346C140.905 23.2346 141.467 23.1292 141.959 22.9184C142.474 22.6843 142.895 22.2979 143.223 21.7593C143.551 21.2207 143.738 20.4714 143.785 19.5112L145.12 20.9163C145.003 22.2511 144.675 23.3751 144.136 24.2883C143.621 25.2016 142.895 25.9041 141.959 26.3959C141.045 26.8876 139.921 27.1335 138.586 27.1335Z" fill="#5061FC"/>
<path d="M160.847 27.3092C159.185 27.3092 157.733 27.0399 156.492 26.5013C155.274 25.9393 154.255 25.1899 153.436 24.2532C152.616 23.3165 152.007 22.2628 151.609 21.0919C151.211 19.8976 151.012 18.6682 151.012 17.4037V16.7363C151.012 15.425 151.223 14.1721 151.644 12.9779C152.066 11.7602 152.687 10.683 153.506 9.7463C154.326 8.80962 155.344 8.07198 156.562 7.53338C157.803 6.99479 159.22 6.72549 160.812 6.72549C162.545 6.72549 164.079 7.06504 165.414 7.74414C166.749 8.39982 167.814 9.32479 168.61 10.5191C169.406 11.7133 169.851 13.0832 169.945 14.6288H164.43C164.337 13.7623 163.985 13.0364 163.376 12.451C162.791 11.8421 161.936 11.5377 160.812 11.5377C159.876 11.5377 159.091 11.7719 158.459 12.2402C157.85 12.7086 157.393 13.3525 157.089 14.1721C156.785 14.9917 156.632 15.9636 156.632 17.0876C156.632 18.1179 156.773 19.0546 157.054 19.8976C157.335 20.7172 157.78 21.3612 158.389 21.8295C159.021 22.2745 159.84 22.4969 160.847 22.4969C161.597 22.4969 162.229 22.3681 162.744 22.1106C163.283 21.8295 163.704 21.4549 164.009 20.9865C164.337 20.4948 164.536 19.9328 164.606 19.3005H170.085C170.015 20.8929 169.57 22.2979 168.751 23.5156C167.931 24.7099 166.842 25.6465 165.484 26.3256C164.126 26.9813 162.58 27.3092 160.847 27.3092Z" fill="#5061FC"/>
<path d="M180.67 26.8876C178.726 26.8876 177.157 26.6535 175.963 26.1851C174.769 25.6934 173.891 24.8855 173.329 23.7615C172.79 22.614 172.521 21.0685 172.521 19.1249V2.19427H177.754V19.3356C177.754 20.2489 177.989 20.9514 178.457 21.4432C178.949 21.9115 179.639 22.1457 180.529 22.1457H183.374V26.8876H180.67ZM169.605 11.5026V7.39288H183.374V11.5026H169.605Z" fill="#5061FC"/>
<path d="M192.566 27.2389C189.827 27.2389 187.684 26.6769 186.138 25.5529C184.593 24.4288 183.773 22.8482 183.68 20.8109H188.667C188.761 21.4197 189.124 21.97 189.756 22.4618C190.412 22.9302 191.384 23.1643 192.672 23.1643C193.655 23.1643 194.463 23.0004 195.096 22.6726C195.751 22.3213 196.079 21.8295 196.079 21.1973C196.079 20.6353 195.833 20.1903 195.341 19.8625C194.85 19.5112 193.971 19.2654 192.707 19.1249L191.197 18.9844C188.878 18.7502 187.134 18.1062 185.963 17.0525C184.815 15.9987 184.242 14.6522 184.242 13.013C184.242 11.6548 184.581 10.5191 185.26 9.6058C185.939 8.69253 186.876 8.00172 188.07 7.53338C189.288 7.06504 190.67 6.83087 192.215 6.83087C194.697 6.83087 196.7 7.38117 198.222 8.48178C199.744 9.55896 200.54 11.1279 200.61 13.1886H195.622C195.529 12.5564 195.201 12.0295 194.639 11.608C194.077 11.163 193.246 10.9406 192.145 10.9406C191.279 10.9406 190.588 11.1045 190.073 11.4323C189.557 11.7602 189.3 12.2051 189.3 12.7671C189.3 13.3057 189.522 13.7155 189.967 13.9965C190.412 14.2775 191.138 14.4766 192.145 14.5936L193.655 14.7342C196.02 14.9917 197.859 15.6474 199.17 16.7012C200.481 17.755 201.137 19.1717 201.137 20.9514C201.137 22.2393 200.786 23.3634 200.083 24.3235C199.381 25.2602 198.386 25.9861 197.098 26.5013C195.81 26.993 194.299 27.2389 192.566 27.2389Z" fill="#5061FC"/>
<path d="M0 25.6418V0H7.93841L13.8044 14.4015H14.4718L20.2675 0H28.3464V25.6418H22.6561V3.75845L23.464 3.8287L16.6847 20.4432H11.2051L4.39071 3.8287L5.26886 3.75845V25.6418H0Z" fill="#222222"/>
<path d="M31.8135 33.264V28.4869H35.8178C36.4266 28.4869 36.9418 28.405 37.3633 28.2411C37.7848 28.1006 38.1244 27.8547 38.382 27.5034C38.6396 27.1522 38.8503 26.6721 39.0142 26.0633L43.7562 6.39288H49.0953L43.7211 27.1873C43.3464 28.686 42.8195 29.8803 42.1404 30.7701C41.4847 31.66 40.5949 32.2922 39.4709 32.6669C38.3703 33.065 36.9652 33.264 35.2558 33.264H31.8135ZM37.8551 25.2203V20.8295H41.9297V25.2203H37.8551ZM35.5368 25.2203L29.6357 6.39288H35.2909L40.8759 25.2203H35.5368Z" fill="#222222"/>
</svg>
