<svg width="23" height="23" viewBox="0 0 23 23" fill="none" xmlns="http://www.w3.org/2000/svg">
<g id="Group 9">
<path id="Vector" opacity="0.6" d="M10 3.34856H3C2.46957 3.34856 1.96086 3.55927 1.58579 3.93434C1.21071 4.30942 1 4.81812 1 5.34856V19.3486C1 19.879 1.21071 20.3877 1.58579 20.7628C1.96086 21.1378 2.46957 21.3486 3 21.3486H17C17.5304 21.3486 18.0391 21.1378 18.4142 20.7628C18.7893 20.3877 19 19.879 19 19.3486V12.3486" stroke="#5061FC" stroke-width="2" stroke-linecap="round" stroke-linejoin="round"/>
<path id="Vector_2" d="M17.5 1.84857C17.8978 1.45074 18.4374 1.22725 19 1.22725C19.5626 1.22725 20.1022 1.45074 20.5 1.84857C20.8978 2.24639 21.1213 2.78596 21.1213 3.34857C21.1213 3.91118 20.8978 4.45074 20.5 4.84857L11 14.3486L7 15.3486L8 11.3486L17.5 1.84857Z" stroke="#5061FC" stroke-width="2" stroke-linecap="round" stroke-linejoin="round"/>
</g>
</svg>
