<svg xmlns="http://www.w3.org/2000/svg" width="20" height="23" viewBox="0 0 20 23" fill="none">
  <path opacity="0.6" d="M1 5.22725H3H19" stroke="#FC5050" stroke-width="2" stroke-linecap="round" stroke-linejoin="round"/>
  <path fill-rule="evenodd" clip-rule="evenodd" d="M7.29289 2.52014C7.48043 2.33261 7.73478 2.22725 8 2.22725H12C12.2652 2.22725 12.5196 2.33261 12.7071 2.52014C12.8946 2.70768 13 2.96203 13 3.22725V4.22725H15V3.22725C15 2.4316 14.6839 1.66854 14.1213 1.10593C13.5587 0.54332 12.7956 0.227249 12 0.227249H8C7.20435 0.227249 6.44129 0.54332 5.87868 1.10593C5.31607 1.66854 5 2.4316 5 3.22725V4.22725H7V3.22725C7 2.96203 7.10536 2.70768 7.29289 2.52014ZM18 6.22725H16V19.2272C16 19.4925 15.8946 19.7468 15.7071 19.9344C15.5196 20.1219 15.2652 20.2272 15 20.2272H5C4.73478 20.2272 4.48043 20.1219 4.29289 19.9344C4.10536 19.7468 4 19.4925 4 19.2272V6.22725H3H2V19.2272C2 20.0229 2.31607 20.786 2.87868 21.3486C3.44129 21.9112 4.20435 22.2272 5 22.2272H15C15.7957 22.2272 16.5587 21.9112 17.1213 21.3486C17.6839 20.786 18 20.0229 18 19.2272V6.22725Z" fill="#FC5050"/>
</svg>
